<?xml version="1.0" encoding="UTF-8" standalone="no"?>
<svg xmlns:dc="http://purl.org/dc/elements/1.1/" xmlns:cc="http://creativecommons.org/ns#" xmlns:rdf="http://www.w3.org/1999/02/22-rdf-syntax-ns#" xmlns:svg="http://www.w3.org/2000/svg" xmlns="http://www.w3.org/2000/svg" xmlns:xlink="http://www.w3.org/1999/xlink" xmlns:sodipodi="http://sodipodi.sourceforge.net/DTD/sodipodi-0.dtd" xmlns:inkscape="http://www.inkscape.org/namespaces/inkscape" width="512" height="512" id="svg2" version="1.1" inkscape:version="0.91 r13725" sodipodi:docname="beach.svg">
  <defs id="defs4">
    <linearGradient inkscape:collect="always" id="linearGradient3932">
      <stop style="stop-color:#fcd116;stop-opacity:1;" offset="0" id="stop3934"/>
      <stop style="stop-color:#fcd116;stop-opacity:0;" offset="1" id="stop3936"/>
    </linearGradient>
    <radialGradient inkscape:collect="always" xlink:href="#linearGradient3932" id="radialGradient3938" cx="340.22913" cy="79.298355" fx="340.22913" fy="79.298355" r="13.958117" gradientUnits="userSpaceOnUse"/>
    <clipPath clipPathUnits="userSpaceOnUse" id="clipPath3943">
      <path sodipodi:end="3.1415927" sodipodi:start="0" sodipodi:type="arc" style="fill:#4bb7c0;fill-opacity:1;stroke:none" id="path3945" sodipodi:cx="251.42857" sodipodi:cy="229.14285" sodipodi:rx="205.71428" sodipodi:ry="205.71428" d="m 457.14285,229.14285 a 205.71428,205.71428 0 1 1 -411.428556,-1e-5 l 205.714276,1e-5 z" transform="matrix(-0.44444444,0,0,-0.44444444,415.0973,254.90678)"/>
    </clipPath>
    <clipPath clipPathUnits="userSpaceOnUse" id="clipPath4027">
      <path transform="matrix(1.1666667,0,0,1.1666667,-33.333335,525.02884)" d="m 457.14285,229.14285 a 205.71428,205.71428 0 1 1 -411.428556,0 205.71428,205.71428 0 1 1 411.428556,0 z" sodipodi:ry="205.71428" sodipodi:rx="205.71428" sodipodi:cy="229.14285" sodipodi:cx="251.42857" id="path4029" style="fill:#e5b731;fill-opacity:1;stroke:none" sodipodi:type="arc"/>
    </clipPath>
    <clipPath clipPathUnits="userSpaceOnUse" id="clipPath4092">
      <path sodipodi:end="9.590452" sodipodi:start="6.0925592" sodipodi:type="arc" style="fill:#4bb7c0;fill-opacity:1;stroke:none" id="path4094" sodipodi:cx="251.42857" sodipodi:cy="229.14285" sodipodi:rx="205.71428" sodipodi:ry="205.71428" d="M 453.4165,190.16541 A 205.71428,205.71428 0 1 1 48.531054,195.21703 L 251.42857,229.14285 z" transform="matrix(-1.1666667,0,0,-1.1666667,553.33335,519.33332)"/>
    </clipPath>
    <clipPath clipPathUnits="userSpaceOnUse" id="clipPath4098">
      <path sodipodi:end="9.590452" sodipodi:start="6.0925592" sodipodi:type="arc" style="fill:#4bb7c0;fill-opacity:1;stroke:none" id="path4100" sodipodi:cx="251.42857" sodipodi:cy="229.14285" sodipodi:rx="205.71428" sodipodi:ry="205.71428" d="M 453.4165,190.16541 A 205.71428,205.71428 0 1 1 48.531054,195.21703 L 251.42857,229.14285 z" transform="matrix(-1.1666213,-0.00506212,0.01298341,-1.1666826,541.51887,1062.1108)"/>
    </clipPath>
    <clipPath clipPathUnits="userSpaceOnUse" id="clipPath5473">
      <path transform="matrix(1.1666667,0,0,1.1666667,-33.333335,525.02884)" d="m 457.14285,229.14285 a 205.71428,205.71428 0 1 1 -411.428556,0 205.71428,205.71428 0 1 1 411.428556,0 z" sodipodi:ry="205.71428" sodipodi:rx="205.71428" sodipodi:cy="229.14285" sodipodi:cx="251.42857" id="path5475" style="fill:#456196;fill-opacity:1;stroke:none" sodipodi:type="arc"/>
    </clipPath>
    <clipPath clipPathUnits="userSpaceOnUse" id="clipPath5577">
      <path sodipodi:nodetypes="cccscc" id="path5579" d="m 288.31979,845.36168 -52.95863,0.61436 -127.9479,114.54242 c 39.25433,44.34574 93.91532,71.84374 154.3662,71.84374 60.88183,0 115.87064,-27.9094 155.1831,-72.81249 z" style="fill:#3c517d;fill-opacity:1;stroke:none" inkscape:connector-curvature="0"/>
    </clipPath>
    <radialGradient inkscape:collect="always" xlink:href="#linearGradient3932-7-8" id="radialGradient6281-1" gradientUnits="userSpaceOnUse" cx="340.22913" cy="79.298355" fx="340.22913" fy="79.298355" r="13.958117"/>
    <linearGradient id="linearGradient3932-7-8">
      <stop style="stop-color:#ffffff;stop-opacity:1;" offset="0" id="stop3934-1-0"/>
      <stop style="stop-color:#ffffff;stop-opacity:0;" offset="1" id="stop3936-41-1"/>
    </linearGradient>
    <clipPath clipPathUnits="userSpaceOnUse" id="clipPath3943-4-5">
      <path sodipodi:end="3.1415927" sodipodi:start="0" sodipodi:type="arc" style="fill:#4bb7c0;fill-opacity:1;stroke:none" id="path3945-4-9" sodipodi:cx="251.42857" sodipodi:cy="229.14285" sodipodi:rx="205.71428" sodipodi:ry="205.71428" d="m 457.14285,229.14285 a 205.71428,205.71428 0 1 1 -411.428556,-1e-5 l 205.714276,1e-5 z" transform="matrix(-0.44444444,0,0,-0.44444444,415.0973,254.90678)"/>
    </clipPath>
    <clipPath clipPathUnits="userSpaceOnUse" id="clipPath6012-8">
      <path transform="matrix(1.1666667,0,0,0.93144209,-33.64177,570.63291)" d="m 457.14285,229.14285 a 205.71428,205.71428 0 1 1 -411.428556,0 205.71428,205.71428 0 1 1 411.428556,0 z" sodipodi:ry="205.71428" sodipodi:rx="205.71428" sodipodi:cy="229.14285" sodipodi:cx="251.42857" id="path6014-1" style="fill:#456196;fill-opacity:1;stroke:none" sodipodi:type="arc"/>
    </clipPath>
    <radialGradient inkscape:collect="always" xlink:href="#linearGradient3932-7" id="radialGradient6281" gradientUnits="userSpaceOnUse" cx="340.22913" cy="79.298355" fx="340.22913" fy="79.298355" r="13.958117"/>
    <linearGradient id="linearGradient3932-7">
      <stop style="stop-color:#ffffff;stop-opacity:1;" offset="0" id="stop3934-1"/>
      <stop style="stop-color:#ffffff;stop-opacity:0;" offset="1" id="stop3936-41"/>
    </linearGradient>
    <clipPath clipPathUnits="userSpaceOnUse" id="clipPath3943-4">
      <path sodipodi:end="3.1415927" sodipodi:start="0" sodipodi:type="arc" style="fill:#4bb7c0;fill-opacity:1;stroke:none" id="path3945-4" sodipodi:cx="251.42857" sodipodi:cy="229.14285" sodipodi:rx="205.71428" sodipodi:ry="205.71428" d="m 457.14285,229.14285 a 205.71428,205.71428 0 1 1 -411.428556,-1e-5 l 205.714276,1e-5 z" transform="matrix(-0.44444444,0,0,-0.44444444,415.0973,254.90678)"/>
    </clipPath>
    <clipPath clipPathUnits="userSpaceOnUse" id="clipPath6012">
      <path transform="matrix(1.1666667,0,0,0.93144209,-33.64177,570.63291)" d="m 457.14285,229.14285 a 205.71428,205.71428 0 1 1 -411.428556,0 205.71428,205.71428 0 1 1 411.428556,0 z" sodipodi:ry="205.71428" sodipodi:rx="205.71428" sodipodi:cy="229.14285" sodipodi:cx="251.42857" id="path6014" style="fill:#456196;fill-opacity:1;stroke:none" sodipodi:type="arc"/>
    </clipPath>
    <radialGradient inkscape:collect="always" xlink:href="#linearGradient3932-7" id="radialGradient3297" gradientUnits="userSpaceOnUse" cx="340.22913" cy="79.298355" fx="340.22913" fy="79.298355" r="13.958117"/>
    <clipPath clipPathUnits="userSpaceOnUse" id="clipPath5577-8">
      <path sodipodi:nodetypes="cccscc" id="path5579-9" d="m 288.31979,845.36168 -52.95863,0.61436 -127.9479,114.54242 c 39.25433,44.34574 93.91532,71.84374 154.3662,71.84374 60.88183,0 115.87064,-27.9094 155.1831,-72.81249 z" style="fill:#3c517d;fill-opacity:1;stroke:none" inkscape:connector-curvature="0"/>
    </clipPath>
    <clipPath clipPathUnits="userSpaceOnUse" id="clipPath4098-4">
      <path sodipodi:end="9.590452" sodipodi:start="6.0925592" sodipodi:type="arc" style="fill:#4bb7c0;fill-opacity:1;stroke:none" id="path4100-2" sodipodi:cx="251.42857" sodipodi:cy="229.14285" sodipodi:rx="205.71428" sodipodi:ry="205.71428" d="M 453.4165,190.16541 A 205.71428,205.71428 0 1 1 48.531054,195.21703 L 251.42857,229.14285 z" transform="matrix(-1.1666213,-0.00506212,0.01298341,-1.1666826,541.51887,1062.1108)"/>
    </clipPath>
    <clipPath clipPathUnits="userSpaceOnUse" id="clipPath4092-7">
      <path sodipodi:end="9.590452" sodipodi:start="6.0925592" sodipodi:type="arc" style="fill:#4bb7c0;fill-opacity:1;stroke:none" id="path4094-7" sodipodi:cx="251.42857" sodipodi:cy="229.14285" sodipodi:rx="205.71428" sodipodi:ry="205.71428" d="M 453.4165,190.16541 A 205.71428,205.71428 0 1 1 48.531054,195.21703 L 251.42857,229.14285 z" transform="matrix(-1.1666667,0,0,-1.1666667,553.33335,519.33332)"/>
    </clipPath>
    <clipPath clipPathUnits="userSpaceOnUse" id="clipPath4027-8">
      <path transform="matrix(1.1666667,0,0,1.1666667,-33.333335,525.02884)" d="m 457.14285,229.14285 a 205.71428,205.71428 0 1 1 -411.428556,0 205.71428,205.71428 0 1 1 411.428556,0 z" sodipodi:ry="205.71428" sodipodi:rx="205.71428" sodipodi:cy="229.14285" sodipodi:cx="251.42857" id="path4029-0" style="fill:#e5b731;fill-opacity:1;stroke:none" sodipodi:type="arc"/>
    </clipPath>
    <radialGradient inkscape:collect="always" xlink:href="#linearGradient3932-1" id="radialGradient3938-8" cx="340.22913" cy="79.298355" fx="340.22913" fy="79.298355" r="13.958117" gradientUnits="userSpaceOnUse"/>
    <linearGradient id="linearGradient3932-1">
      <stop style="stop-color:#fcd116;stop-opacity:1;" offset="0" id="stop3934-9"/>
      <stop style="stop-color:#fcd116;stop-opacity:0;" offset="1" id="stop3936-45"/>
    </linearGradient>
    <clipPath clipPathUnits="userSpaceOnUse" id="clipPath3943-0">
      <path sodipodi:end="3.1415927" sodipodi:start="0" sodipodi:type="arc" style="fill:#4bb7c0;fill-opacity:1;stroke:none" id="path3945-7" sodipodi:cx="251.42857" sodipodi:cy="229.14285" sodipodi:rx="205.71428" sodipodi:ry="205.71428" d="m 457.14285,229.14285 a 205.71428,205.71428 0 1 1 -411.428556,-1e-5 l 205.714276,1e-5 z" transform="matrix(-0.44444444,0,0,-0.44444444,415.0973,254.90678)"/>
    </clipPath>
    <clipPath clipPathUnits="userSpaceOnUse" id="clipPath3210">
      <path transform="matrix(1.0267921,0,0,2.000073,5.3641194,296.45834)" d="m 457.14285,229.14285 a 205.71428,205.71428 0 1 1 -411.428556,0 205.71428,205.71428 0 1 1 411.428556,0 z" sodipodi:ry="205.71428" sodipodi:rx="205.71428" sodipodi:cy="229.14285" sodipodi:cx="251.42857" id="path3212" style="fill:#456196;fill-opacity:1;stroke:none" sodipodi:type="arc"/>
    </clipPath>
    <clipPath clipPathUnits="userSpaceOnUse" id="clipPath3998">
      <path transform="matrix(0.72413796,0,0,0.80459772,-192.9705,-28.926545)" d="m 457.14285,229.14285 a 205.71428,205.71428 0 1 1 -411.428556,0 205.71428,205.71428 0 1 1 411.428556,0 z" sodipodi:ry="205.71428" sodipodi:rx="205.71428" sodipodi:cy="229.14285" sodipodi:cx="251.42857" id="path4000" style="fill:#456196;fill-opacity:1;stroke:none" sodipodi:type="arc"/>
    </clipPath>
    <clipPath clipPathUnits="userSpaceOnUse" id="clipPath5577-3">
      <path sodipodi:nodetypes="cccscc" id="path5579-7" d="m 288.31979,845.36168 -52.95863,0.61436 -127.9479,114.54242 c 39.25433,44.34574 93.91532,71.84374 154.3662,71.84374 60.88183,0 115.87064,-27.9094 155.1831,-72.81249 z" style="fill:#3c517d;fill-opacity:1;stroke:none" inkscape:connector-curvature="0"/>
    </clipPath>
    <clipPath clipPathUnits="userSpaceOnUse" id="clipPath4098-2">
      <path sodipodi:end="9.590452" sodipodi:start="6.0925592" sodipodi:type="arc" style="fill:#4bb7c0;fill-opacity:1;stroke:none" id="path4100-6" sodipodi:cx="251.42857" sodipodi:cy="229.14285" sodipodi:rx="205.71428" sodipodi:ry="205.71428" d="M 453.4165,190.16541 A 205.71428,205.71428 0 1 1 48.531054,195.21703 L 251.42857,229.14285 z" transform="matrix(-1.1666213,-0.00506212,0.01298341,-1.1666826,541.51887,1062.1108)"/>
    </clipPath>
    <clipPath clipPathUnits="userSpaceOnUse" id="clipPath4092-70">
      <path sodipodi:end="9.590452" sodipodi:start="6.0925592" sodipodi:type="arc" style="fill:#4bb7c0;fill-opacity:1;stroke:none" id="path4094-3" sodipodi:cx="251.42857" sodipodi:cy="229.14285" sodipodi:rx="205.71428" sodipodi:ry="205.71428" d="M 453.4165,190.16541 A 205.71428,205.71428 0 1 1 48.531054,195.21703 L 251.42857,229.14285 z" transform="matrix(-1.1666667,0,0,-1.1666667,553.33335,519.33332)"/>
    </clipPath>
    <clipPath clipPathUnits="userSpaceOnUse" id="clipPath4027-81">
      <path transform="matrix(1.1666667,0,0,1.1666667,-33.333335,525.02884)" d="m 457.14285,229.14285 a 205.71428,205.71428 0 1 1 -411.428556,0 205.71428,205.71428 0 1 1 411.428556,0 z" sodipodi:ry="205.71428" sodipodi:rx="205.71428" sodipodi:cy="229.14285" sodipodi:cx="251.42857" id="path4029-1" style="fill:#e5b731;fill-opacity:1;stroke:none" sodipodi:type="arc"/>
    </clipPath>
    <radialGradient inkscape:collect="always" xlink:href="#linearGradient3932-5" id="radialGradient3938-81" cx="340.22913" cy="79.298355" fx="340.22913" fy="79.298355" r="13.958117" gradientUnits="userSpaceOnUse"/>
    <linearGradient inkscape:collect="always" id="linearGradient3932-5">
      <stop style="stop-color:#fcd116;stop-opacity:1;" offset="0" id="stop3934-6"/>
      <stop style="stop-color:#fcd116;stop-opacity:0;" offset="1" id="stop3936-0"/>
    </linearGradient>
    <clipPath clipPathUnits="userSpaceOnUse" id="clipPath3943-6">
      <path sodipodi:end="3.1415927" sodipodi:start="0" sodipodi:type="arc" style="fill:#4bb7c0;fill-opacity:1;stroke:none" id="path3945-8" sodipodi:cx="251.42857" sodipodi:cy="229.14285" sodipodi:rx="205.71428" sodipodi:ry="205.71428" d="m 457.14285,229.14285 a 205.71428,205.71428 0 1 1 -411.428556,-1e-5 l 205.714276,1e-5 z" transform="matrix(-0.44444444,0,0,-0.44444444,415.0973,254.90678)"/>
    </clipPath>
    <clipPath clipPathUnits="userSpaceOnUse" id="clipPath4411">
      <path sodipodi:end="9.590452" sodipodi:start="6.0925592" sodipodi:type="arc" style="fill:#9adbb6;fill-opacity:1;stroke:none" id="path4413" sodipodi:cx="251.42857" sodipodi:cy="229.14285" sodipodi:rx="205.71428" sodipodi:ry="205.71428" d="M 453.4165,190.16541 A 205.71428,205.71428 0 1 1 48.531054,195.21703 L 251.42857,229.14285 z" transform="matrix(-1.1666667,0,0,-1.1666667,516.56942,1072.0792)"/>
    </clipPath>
    <clipPath clipPathUnits="userSpaceOnUse" id="clipPath4423">
      <path transform="matrix(1.0824559,0.43520162,-0.43520162,1.0824559,154.15705,496.1364)" d="m 457.14285,229.14285 a 205.71428,205.71428 0 1 1 -411.428556,0 205.71428,205.71428 0 1 1 411.428556,0 z" sodipodi:ry="205.71428" sodipodi:rx="205.71428" sodipodi:cy="229.14285" sodipodi:cx="251.42857" id="path4425" style="fill:#456196;fill-opacity:1;stroke:none" sodipodi:type="arc"/>
    </clipPath>
    <clipPath clipPathUnits="userSpaceOnUse" id="clipPath3943-0-5">
      <path sodipodi:end="3.1415927" sodipodi:start="0" sodipodi:type="arc" style="fill:#4bb7c0;fill-opacity:1;stroke:none" id="path3945-8-6" sodipodi:cx="251.42857" sodipodi:cy="229.14285" sodipodi:rx="205.71428" sodipodi:ry="205.71428" d="m 457.14285,229.14285 a 205.71428,205.71428 0 1 1 -411.428556,-1e-5 l 205.714276,1e-5 z" transform="matrix(-0.44444444,0,0,-0.44444444,415.0973,254.90678)"/>
    </clipPath>
    <radialGradient inkscape:collect="always" xlink:href="#linearGradient3932-1" id="radialGradient6773" gradientUnits="userSpaceOnUse" cx="340.22913" cy="79.298355" fx="340.22913" fy="79.298355" r="13.958117"/>
    <clipPath clipPathUnits="userSpaceOnUse" id="clipPath6880">
      <path transform="matrix(1.1666667,0,0,1.1666667,-51.894672,600.89488)" d="m 457.14285,229.14285 a 205.71428,205.71428 0 1 1 -411.428556,0 205.71428,205.71428 0 1 1 411.428556,0 z" sodipodi:ry="205.71428" sodipodi:rx="205.71428" sodipodi:cy="229.14285" sodipodi:cx="251.42857" id="path6882" style="fill:#21b8d0;fill-opacity:1;stroke:none" sodipodi:type="arc"/>
    </clipPath>
    <clipPath clipPathUnits="userSpaceOnUse" id="clipPath6900">
      <path sodipodi:end="9.590452" sodipodi:start="6.0925592" sodipodi:type="arc" style="fill:#86d0ef;fill-opacity:1;stroke:none" id="path6902" sodipodi:cx="251.42857" sodipodi:cy="229.14285" sodipodi:rx="205.71428" sodipodi:ry="205.71428" d="M 453.4165,190.16541 A 205.71428,205.71428 0 1 1 48.531054,195.21703 L 251.42857,229.14285 z" transform="matrix(-1.0730553,0,0,-0.62903229,504.03446,1010.9244)"/>
    </clipPath>
    <clipPath clipPathUnits="userSpaceOnUse" id="clipPath7238">
      <path transform="matrix(1.1666667,0,0,1.1666667,-37.333345,529.35953)" d="m 457.14285,229.14285 a 205.71428,205.71428 0 1 1 -411.428556,0 205.71428,205.71428 0 1 1 411.428556,0 z" sodipodi:ry="205.71428" sodipodi:rx="205.71428" sodipodi:cy="229.14285" sodipodi:cx="251.42857" id="path7240" style="fill:#21b8d0;fill-opacity:1;stroke:none" sodipodi:type="arc"/>
    </clipPath>
    <clipPath clipPathUnits="userSpaceOnUse" id="clipPath6900-6">
      <path sodipodi:end="3.3072667" sodipodi:start="6.0925592" sodipodi:type="arc" style="fill:#86d0ef;fill-opacity:1;stroke:none" id="path6902-6" sodipodi:cx="251.42857" sodipodi:cy="229.14285" sodipodi:rx="205.71428" sodipodi:ry="205.71428" d="M 453.4165,190.16541 A 205.71428,205.71428 0 0 1 366.81127,399.45198 205.71428,205.71428 0 0 1 140.33092,402.2777 205.71428,205.71428 0 0 1 48.531054,195.21703 l 202.897516,33.92582 z" transform="matrix(-1.0730553,0,0,-0.62903229,504.03446,1010.9244)"/>
    </clipPath>
    <clipPath clipPathUnits="userSpaceOnUse" id="clipPath6880-4">
      <circle r="205.71428" cy="229.14285" cx="251.42857" transform="matrix(1.1666667,0,0,1.1666667,-51.894672,600.89488)" id="path6882-7" style="fill:#21b8d0;fill-opacity:1;stroke:none"/>
    </clipPath>
    <clipPath clipPathUnits="userSpaceOnUse" id="clipPath3210-6">
      <circle r="205.71428" cy="229.14285" cx="251.42857" transform="matrix(1.0267921,0,0,2.000073,5.3641194,296.45834)" id="path3212-7" style="fill:#456196;fill-opacity:1;stroke:none"/>
    </clipPath>
    <clipPath clipPathUnits="userSpaceOnUse" id="clipPath7238-6">
      <circle r="205.71428" cy="229.14285" cx="251.42857" transform="matrix(1.1666667,0,0,1.1666667,-37.333345,529.35953)" id="path7240-5" style="fill:#21b8d0;fill-opacity:1;stroke:none"/>
    </clipPath>
    <clipPath clipPathUnits="userSpaceOnUse" id="clipPath4335">
      <circle r="205.71428" cy="229.14285" cx="251.42857" transform="matrix(1.1666667,0,0,1.1666667,-37.333345,529.35953)" id="path4337" style="fill:#21b8d0;fill-opacity:1;stroke:none"/>
    </clipPath>
    <clipPath clipPathUnits="userSpaceOnUse" id="clipPath3998-7">
      <circle r="205.71428" cy="229.14285" cx="251.42857" transform="matrix(0.72413796,0,0,0.80459772,-192.9705,-28.926545)" id="path4000-9" style="fill:#456196;fill-opacity:1;stroke:none"/>
    </clipPath>
    <clipPath clipPathUnits="userSpaceOnUse" id="clipPath3943-0-5-0">
      <path sodipodi:end="3.1415927" sodipodi:start="0" sodipodi:type="arc" style="fill:#4bb7c0;fill-opacity:1;stroke:none" id="path3945-8-6-5" sodipodi:cx="251.42857" sodipodi:cy="229.14285" sodipodi:rx="205.71428" sodipodi:ry="205.71428" d="m 457.14285,229.14285 a 205.71428,205.71428 0 0 1 -102.85714,178.1538 205.71428,205.71428 0 0 1 -205.71428,-10e-6 205.71428,205.71428 0 0 1 -102.857136,-178.1538 l 205.714276,1e-5 z" transform="matrix(-0.44444444,0,0,-0.44444444,415.0973,254.90678)"/>
    </clipPath>
  </defs>
  <sodipodi:namedview id="base" pagecolor="#ffffff" bordercolor="#666666" borderopacity="1.0" inkscape:pageopacity="0.0" inkscape:pageshadow="2" inkscape:zoom="0.72283895" inkscape:cx="149.47893" inkscape:cy="163.26914" inkscape:document-units="px" inkscape:current-layer="layer1" showgrid="false" showguides="false" inkscape:guide-bbox="true" inkscape:window-width="1366" inkscape:window-height="716" inkscape:window-x="-8" inkscape:window-y="-8" inkscape:window-maximized="1"/>
  
  <g inkscape:label="Layer 1" inkscape:groupmode="layer" id="layer1" transform="translate(0,-540.36218)">
    <g id="g5636" transform="translate(1498.782,-10.99996)">
      <path inkscape:connector-curvature="0" id="path3203" d="M -994.53849,807.36212 A 249.46154,249.46154 0 0 1 -1244,1056.8237 249.46154,249.46154 0 0 1 -1493.4615,807.36212 249.46154,249.46154 0 0 1 -1244,557.90058 249.46154,249.46154 0 0 1 -994.53849,807.36212 Z" style="fill:#ffffff;fill-opacity:1;stroke:#ffffff;stroke-width:1.07697845;stroke-linecap:butt;stroke-linejoin:miter;stroke-miterlimit:4;stroke-dasharray:none;stroke-dashoffset:0;stroke-opacity:1"/>
      <g transform="matrix(1.044552,0,0,1.0459179,66.453812,-27.569855)" id="g5582">
        <circle style="fill:#21b8d0;fill-opacity:1;stroke:none" id="path2985-8" cx="-1254.71" cy="798.12671" r="229.61365"/>
        <path inkscape:connector-curvature="0" id="path2989-5" d="m -1480.1431,841.04225 a 229.61365,229.61365 0 0 1 96.6668,-233.60096 229.61365,229.61365 0 0 1 252.7923,-3.15401 229.61365,229.61365 0 0 1 102.4649,231.11646 l -226.4696,-37.86723 z" style="fill:#86d0ef;fill-opacity:1;stroke:none"/>
        <path inkscape:connector-curvature="0" style="fill:#ffffff;fill-opacity:1;stroke:none" d="m -1056.0977,142.79883 a 48.094334,61.14547 0 0 0 -0.6328,5.05469 32.587015,48.484335 15.873019 0 0 -6.9668,3.92968 32.587015,48.484335 15.873019 0 0 -20.9218,31.95118 18.77769,27.938239 15.87302 0 0 -21.9141,-3.63477 18.77769,27.938239 15.87302 0 0 -12.8027,21.38477 16.852819,13.444385 0 0 0 -8.2071,-1.70899 16.852819,13.444385 0 0 0 -16.8535,13.44531 16.852819,13.444385 0 0 0 0.2051,2.01563 l -276.7012,0 a 48.484335,32.587015 74.126981 0 0 -22.4629,-63.45313 48.484335,32.587015 74.126981 0 0 -12.1445,-5.58398 229.61349,229.61349 0 0 0 -28.5449,105.66016 l 458.7519,0 a 229.61349,229.61349 0 0 0 -30.8047,-109.06055 z" transform="translate(0,540.36218)" id="rect6886"/>
        <path inkscape:connector-curvature="0" style="fill:#86d0ef;fill-opacity:1;stroke:none" d="m -1466.1387,167.91016 a 229.61349,229.61349 0 0 0 -18.1855,89.53711 229.61349,229.61349 0 0 0 0.059,1.63281 l 454.5508,0 c 1.6706,0 3.2124,-0.0955 4.5507,-0.25196 a 229.61349,229.61349 0 0 0 0.068,-1.38085 229.61349,229.61349 0 0 0 -15.791,-83.61524 44.235321,32.967834 0 0 0 -38.3477,29.16992 24.164864,32.42374 66.991627 0 0 -6.4062,2.11914 24.164864,32.42374 66.991627 0 0 -19.2422,17.22657 13.924573,18.683605 66.991627 0 0 -20.1563,-1.95899 13.924573,18.683605 66.991627 0 0 -11.6308,11.14844 l -276.3633,0 a 32.42374,24.164864 23.008373 0 0 -21.8027,-26.41602 32.42374,24.164864 23.008373 0 0 -17.4317,-3.32031 32.967834,44.235321 0 0 0 -13.8711,-33.89062 z" transform="translate(0,540.36218)" id="rect6848"/>
        <path inkscape:connector-curvature="0" style="fill:#21b8d0;fill-opacity:1;stroke:none" d="m -1484.1719,254.42383 a 229.61349,229.61349 0 0 0 -0.1523,3.02344 229.61349,229.61349 0 0 0 6.1426,51.50195 l 447.0058,0 a 229.61349,229.61349 0 0 0 6.0801,-51.50195 229.61349,229.61349 0 0 0 -0.1074,-3.02344 l -458.9688,0 z" transform="translate(0,540.36218)" id="path4015-2"/>
        <ellipse style="fill:#3c517d;fill-opacity:1;stroke:none" id="path4121" cx="-1351.1567" cy="954.52032" rx="9.7378321" ry="9.3056898"/>
        <path inkscape:connector-curvature="0" style="fill:#19a1c2;fill-opacity:1;stroke:none" d="m -1484.1973,254.92969 a 229.61349,229.61349 0 0 0 -0.1269,2.51758 229.61349,229.61349 0 0 0 0.2148,6.05078 l 0.3946,0 c -0.1321,0.0237 -0.2612,0.0547 -0.3926,0.0801 a 229.61349,229.61349 0 0 0 53.4726,141.08204 l 128.6641,0 c 3.344,26.21705 25.7562,45.88138 52.916,45.13867 l 124.3692,-3.40039 a 229.61349,229.61349 0 0 0 99.5898,-188.95117 229.61349,229.61349 0 0 0 -0.09,-2.51758 l -459.0118,0 z m 78.4766,8.56836 245.0215,0 c -1.4813,2.41882 -2.2912,5.30138 -2.1738,8.40429 0.3216,8.50126 7.4284,15.30238 15.9355,15.25 l 50.709,-0.3125 0.2871,9.26563 -15.3887,0.0566 c -5.112,0.0189 -8.97,4.14024 -8.6484,9.24219 0.3216,5.10195 4.6965,9.19467 9.8086,9.17578 l 4.5996,-0.0176 0.3867,25.42578 -144.7734,3.95899 c -4.0407,0.11049 -7.963,0.68115 -11.7325,1.63476 l -140.2324,0 0,-24.89844 c 11.8932,-3.81517 20.4571,-14.9303 20.4571,-28.12304 0,-14.55971 -10.4305,-26.58449 -24.2559,-29.0625 z" transform="translate(0,540.36218)" id="rect7221"/>
        <path inkscape:connector-curvature="0" style="fill:#21b8d0;fill-opacity:1;stroke:none" d="m -1098.584,276.52148 -113.2226,1.22266 c -5.459,0.0589 -9.7584,4.49907 -9.6407,9.95703 0.1178,5.45796 4.6075,9.80502 10.0664,9.7461 l 113.2227,-1.22266 c 5.4589,-0.0589 9.7584,-4.50103 9.6406,-9.95899 -0.1177,-5.45795 -4.6075,-9.80306 -10.0664,-9.74414 z m 24.4492,37.53516 -99.9843,1.52539 c -5.3525,0.0817 -9.8838,3.29986 -11.9102,7.87891 l -55.2441,0.84375 c -7.3425,0.11205 -13.1629,6.11265 -13.0508,13.45508 0.01,0.37506 0.038,0.74284 0.074,1.10937 l -67.3672,1.11524 c 0.9578,-1.83529 1.5059,-3.92133 1.5059,-6.14258 0,-7.34329 -5.9126,-13.25586 -13.2559,-13.25586 l -99.998,0 c -7.3433,0 -13.2539,5.91257 -13.2539,13.25586 0,7.34328 5.9106,13.2539 13.2539,13.2539 l 77.9355,0 c -1.1232,1.98451 -1.7611,4.27923 -1.7265,6.73047 0.1035,7.34243 6.0972,13.15645 13.4394,13.03516 l 90.3477,-1.49219 c 7.3421,-0.12129 13.1679,-6.13023 13.0644,-13.47266 -0.01,-0.36974 -0.034,-0.73232 -0.068,-1.09375 l 99.4902,-1.51757 c 5.3525,-0.0817 9.8837,-3.29986 11.9101,-7.87891 l 55.2442,-0.84375 c 7.3424,-0.11205 13.1628,-6.11265 13.0508,-13.45508 -0.1121,-7.34243 -6.1146,-13.16283 -13.4571,-13.05078 z" transform="translate(0,540.36218)" id="rect7227"/>
        <path inkscape:connector-curvature="0" style="fill:#3c517d;fill-opacity:1;stroke:none" d="m -1308.2676,386.14062 c -11.1223,0.0328 -22.2244,0.51461 -33.2129,1.44141 -44.8125,6.23438 -18.3203,1.95899 -44.8125,6.23438 -15.4784,3.12093 -30.0063,7.11892 -43.4648,11.84179 a 229.61349,229.61349 0 0 0 175.0488,81.4043 229.61349,229.61349 0 0 0 135.3184,-44.45312 c -39.2957,-33.90507 -109.187,-56.46866 -188.877,-56.46876 z" transform="translate(0,540.36218)" id="path3982"/>
        <path style="fill:#fbf8e7;fill-opacity:1;stroke:none" d="m -1315.3441,955.56446 -0.7123,-80.12436 73.1775,0 -1.1044,79.28973 z" id="path4217" inkscape:connector-curvature="0" sodipodi:nodetypes="ccccc"/>
        <path style="fill:#e74c3c;fill-opacity:1;stroke:none" d="m -1314.1698,871.26166 c 2.2887,0 4.1312,0.86777 4.1312,1.94567 l 0,84.39862 c 0,1.0779 -1.8425,1.94567 -4.1312,1.94567 -2.2887,0 -4.1312,-0.86777 -4.1312,-1.94567 l 0,-84.39862 c 0,-1.0779 1.8425,-1.94567 4.1312,-1.94567 z" id="rect4211" inkscape:connector-curvature="0"/>
        <path style="color:#000000;font-style:normal;font-variant:normal;font-weight:normal;font-stretch:normal;font-size:medium;line-height:normal;font-family:sans-serif;text-indent:0;text-align:start;text-decoration:none;text-decoration-line:none;text-decoration-style:solid;text-decoration-color:#000000;letter-spacing:normal;word-spacing:normal;text-transform:none;direction:ltr;block-progression:tb;writing-mode:lr-tb;baseline-shift:baseline;text-anchor:start;white-space:normal;clip-rule:nonzero;display:inline;overflow:visible;visibility:visible;opacity:1;isolation:auto;mix-blend-mode:normal;color-interpolation:sRGB;color-interpolation-filters:linearRGB;solid-color:#000000;solid-opacity:1;fill:#e74c3c;fill-opacity:1;fill-rule:nonzero;stroke:none;stroke-width:0.90535104px;stroke-linecap:butt;stroke-linejoin:miter;stroke-miterlimit:4;stroke-dasharray:none;stroke-dashoffset:0;stroke-opacity:1;color-rendering:auto;image-rendering:auto;shape-rendering:auto;text-rendering:auto;enable-background:accumulate" d="m -1284.9188,431.37231 -13.2492,0.13746 c 0,0 3.5565,26.37573 4.3614,37.64648 0.1049,1.56327 1.3184,2.83644 2.9433,2.83594 1.6242,-5.2e-4 2.8326,-1.27365 2.9414,-2.83594 0.8882,-12.75832 3.0031,-37.78394 3.0031,-37.78394 z" transform="matrix(0.95734822,0,0,0.95609799,-63.619439,542.99868)" id="path5705" inkscape:connector-curvature="0" sodipodi:nodetypes="ccccsc"/>
        <ellipse style="fill:#fdc42a;fill-opacity:1;stroke:none" id="path4294" cx="-1279.4677" cy="951.81824" rx="31.964649" ry="6.9345164"/>
        <g id="g5718" transform="translate(-1.2371,0)">
          <path id="rect4296" d="m -1297.2814,873.82916 c 1.4333,0 2.5872,0.75945 2.5872,1.7028 l 0,72.87407 c 0,0.94335 -1.1539,1.7028 -2.5872,1.7028 -1.4333,0 -2.5873,-0.75945 -2.5873,-1.7028 l 0,-72.87407 c 0,-0.94335 1.154,-1.7028 2.5873,-1.7028 z" style="fill:#fdc42a;fill-opacity:1;stroke:none" inkscape:connector-curvature="0"/>
          <path id="rect4298" d="m -1283.7402,873.82916 c 1.4911,0 2.6916,0.75945 2.6916,1.7028 l 0,72.87407 c 0,0.94335 -1.2005,1.7028 -2.6916,1.7028 -1.4911,0 -2.6916,-0.75945 -2.6916,-1.7028 l 0,-72.87407 c 0,-0.94335 1.2005,-1.7028 2.6916,-1.7028 z" style="fill:#fdc42a;fill-opacity:1;stroke:none" inkscape:connector-curvature="0"/>
          <path id="rect4300" d="m -1271.1558,873.82916 c 1.4333,0 2.5872,0.7073 2.5872,1.58587 l 0,73.10793 c 0,0.87857 -1.1539,1.58587 -2.5872,1.58587 -1.4333,0 -2.5872,-0.7073 -2.5872,-1.58587 l 0,-73.10793 c 0,-0.87857 1.1539,-1.58587 2.5872,-1.58587 z" style="fill:#fdc42a;fill-opacity:1;stroke:none" inkscape:connector-curvature="0"/>
          <path id="rect4302" d="m -1258.9709,873.82916 c 1.3177,0 2.3786,0.86373 2.3786,1.9366 l 0,72.40647 c 0,1.07287 -1.0609,1.9366 -2.3786,1.9366 -1.3177,0 -2.3786,-0.86373 -2.3786,-1.9366 l 0,-72.40647 c 0,-1.07287 1.0609,-1.9366 2.3786,-1.9366 z" style="fill:#fdc42a;fill-opacity:1;stroke:none" inkscape:connector-curvature="0"/>
        </g>
        <path style="fill:#e74c3c;fill-opacity:1;stroke:none" d="m -1244.5296,871.26166 c 2.2887,0 4.1312,0.86777 4.1312,1.94567 l 0,84.39862 c 0,1.0779 -1.8425,1.94567 -4.1312,1.94567 -2.2887,0 -4.1312,-0.86777 -4.1312,-1.94567 l 0,-84.39862 c 0,-1.0779 1.8425,-1.94567 4.1312,-1.94567 z" id="rect4306" inkscape:connector-curvature="0"/>
        <path transform="matrix(0,1,-1,0,0,0)" style="fill:#e74c3c;fill-opacity:1;stroke:none" d="m 955.42045,1240.6342 c 2.28868,0 4.1312,0.7643 4.1312,1.7138 l 0,74.2392 c 0,0.9495 -1.84252,1.7138 -4.1312,1.7138 -2.28869,0 -4.1312,-0.7643 -4.1312,-1.7138 l 0,-74.2392 c 0,-0.9495 1.84251,-1.7138 4.1312,-1.7138 z" id="rect4308" inkscape:connector-curvature="0"/>
        <path transform="matrix(0.95657807,0.29147624,-0.29147624,0.95657807,0,0)" style="fill:#e74c3c;fill-opacity:1;stroke:none" d="m -910.67733,1248.5024 c 2.28868,0 4.14203,0.2879 4.1312,0.6452 l -0.87152,28.7369 c -0.0108,0.3572 -1.84252,0.6451 -4.1312,0.6451 -2.28869,0 -4.14203,-0.2879 -4.1312,-0.6451 l 0.87152,-28.7369 c 0.0108,-0.3573 1.84251,-0.6452 4.1312,-0.6452 z" id="rect4310" inkscape:connector-curvature="0" sodipodi:nodetypes="sssssss"/>
        <path style="color:#000000;font-style:normal;font-variant:normal;font-weight:normal;font-stretch:normal;font-size:medium;line-height:normal;font-family:sans-serif;text-indent:0;text-align:start;text-decoration:none;text-decoration-line:none;text-decoration-style:solid;text-decoration-color:#000000;letter-spacing:normal;word-spacing:normal;text-transform:none;direction:ltr;block-progression:tb;writing-mode:lr-tb;baseline-shift:baseline;text-anchor:start;white-space:normal;clip-rule:nonzero;display:inline;overflow:visible;visibility:visible;opacity:1;isolation:auto;mix-blend-mode:normal;color-interpolation:sRGB;color-interpolation-filters:linearRGB;solid-color:#000000;solid-opacity:1;fill:#e74c3c;fill-opacity:1;fill-rule:nonzero;stroke:none;stroke-width:1.30263877;stroke-linecap:butt;stroke-linejoin:miter;stroke-miterlimit:4;stroke-dasharray:none;stroke-dashoffset:0;stroke-opacity:1;color-rendering:auto;image-rendering:auto;shape-rendering:auto;text-rendering:auto;enable-background:accumulate" d="m -1201.6172,951.80273 c -3.14,0 -5.6992,2.5592 -5.6992,5.69922 0,3.14003 2.5592,5.69922 5.6992,5.69922 3.14,0 5.6992,-2.55919 5.6992,-5.69922 0,-3.14002 -2.5592,-5.69922 -5.6992,-5.69922 z" id="path5732" inkscape:connector-curvature="0"/>
        <path style="color:#000000;font-style:normal;font-variant:normal;font-weight:normal;font-stretch:normal;font-size:medium;line-height:normal;font-family:sans-serif;text-indent:0;text-align:start;text-decoration:none;text-decoration-line:none;text-decoration-style:solid;text-decoration-color:#000000;letter-spacing:normal;word-spacing:normal;text-transform:none;direction:ltr;block-progression:tb;writing-mode:lr-tb;baseline-shift:baseline;text-anchor:start;white-space:normal;clip-rule:nonzero;display:inline;overflow:visible;visibility:visible;opacity:1;isolation:auto;mix-blend-mode:normal;color-interpolation:sRGB;color-interpolation-filters:linearRGB;solid-color:#000000;solid-opacity:1;fill:#fdc42a;fill-opacity:1;fill-rule:nonzero;stroke:none;stroke-width:1.30263877;stroke-linecap:butt;stroke-linejoin:miter;stroke-miterlimit:4;stroke-dasharray:none;stroke-dashoffset:0;stroke-opacity:1;color-rendering:auto;image-rendering:auto;shape-rendering:auto;text-rendering:auto;enable-background:accumulate" d="m -1201.6172,953.10547 c 2.436,0 4.3965,1.96046 4.3965,4.39648 0,2.43603 -1.9605,4.39649 -4.3965,4.39649 -2.436,0 -4.3965,-1.96046 -4.3965,-4.39649 0,-2.43602 1.9605,-4.39648 4.3965,-4.39648 z" id="path4344" inkscape:connector-curvature="0"/>
        <path style="fill:#fbf8e7;fill-opacity:1;stroke:none" d="m -1212.4777,968.39009 -10.686,-10.2252 21.4147,0 z" id="path4336" inkscape:connector-curvature="0" sodipodi:nodetypes="cccc"/>
        <path style="fill:#fbf8e7;fill-opacity:1;stroke:none" d="m -1208.1294,981.18341 a 4.3269987,1.2620414 0 0 1 -4.327,1.26204 4.3269987,1.2620414 0 0 1 -4.327,-1.26204 4.3269987,1.2620414 0 0 1 4.327,-1.26204 4.3269987,1.2620414 0 0 1 4.327,1.26204 z" id="path4338" inkscape:connector-curvature="0"/>
        <path style="fill:#fbf8e7;fill-opacity:1;stroke:none" d="m -1213.1245,966.85547 1.3363,0 0,14.55059 -1.3363,0 z" id="rect4340" inkscape:connector-curvature="0"/>
        <path inkscape:connector-curvature="0" id="path4342" d="m -1212.4935,967.0774 -5.3871,-5.19499 10.8485,0 z" style="fill:#4bb7c0;fill-opacity:1;stroke:none" sodipodi:nodetypes="cccc"/>
        <path inkscape:connector-curvature="0" style="fill:#fed401;fill-opacity:1;stroke:none" d="m -1143.2188,56.453125 a 30.333033,30.333033 0 0 0 -20.5976,24.478516 30.333033,30.333033 0 0 0 25.6816,34.361329 30.333033,30.333033 0 0 0 34.3594,-25.683595 30.333033,30.333033 0 0 0 0.293,-4.849609 229.61365,229.61365 0 0 0 -27.2012,-20.833985 229.61365,229.61365 0 0 0 -12.5352,-7.472656 z" transform="translate(0,540.36218)" id="path3930"/>
        <path inkscape:connector-curvature="0" style="fill:#ffffff;fill-opacity:1;stroke:none" d="m -1212.1172,77.607422 22.2383,13.777344 a 27.379383,40.016018 86.333166 0 0 -15.2402,16.964844 l 21.3125,-13.203126 9.1054,5.640626 a 40.016018,27.379383 3.6668341 0 0 -4.6211,-8.419922 l 11.6192,-7.197266 a 27.379383,40.016018 86.333166 0 0 -15.5157,3.216797 40.016018,27.379383 3.6668341 0 0 -28.8984,-10.779297 z m 37.416,23.179688 37.416,-23.179688 a 27.379383,40.016018 86.333166 0 0 -37.416,23.179688 z m -30.4179,7.5625 a 40.016018,27.379383 3.6668341 0 0 -37.4141,-23.179688 l 37.4141,23.179688 z" transform="translate(0,540.36218)" id="path3882-1-9"/>
        <path style="fill:none;stroke:#000000;stroke-width:0.92388844px;stroke-linecap:butt;stroke-linejoin:miter;stroke-opacity:1" d="M -1155.5884,648.91561 Z" id="path3880-6" inkscape:connector-curvature="0"/>
        <path style="opacity:0.2;fill:#3b3c3d;stroke:none" d="m -1162.4123,813.77681 0.6923,-43.95855 -3.6969,43.41529 z" id="path7171" inkscape:connector-curvature="0"/>
        <path inkscape:connector-curvature="0" transform="matrix(0,1,-1,0,0,0)" style="fill:#002f51;fill-opacity:1;stroke:none" d="m 749.038,1164.0897 4.54454,0 c 1.25886,0 2.27231,0.7601 2.27231,1.7042 0,0.9442 -1.01345,1.7042 -2.27231,1.7042 l -4.54454,0 c -1.25886,0 -2.27231,-0.76 -2.27231,-1.7042 0,-0.9441 1.01345,-1.7042 2.27231,-1.7042 z" id="rect7189"/>
        <path inkscape:connector-curvature="0" transform="matrix(0.43457963,0.90063341,0.86089399,-0.50878437,0,0)" style="fill:#e9e9e9;fill-opacity:1;stroke:none" d="m 110.53368,-1411.197 a 33.926468,39.815704 0 0 1 -21.297711,36.9544 33.926468,39.815704 0 0 1 -37.153393,-9.4427" id="path7153"/>
        <path inkscape:connector-curvature="0" transform="matrix(-0.48301431,0.87561246,-0.83188827,-0.55494316,0,0)" style="fill:#fed401;fill-opacity:1;stroke:none" d="m 1335.9389,626.00549 a 26.835648,31.494003 0 0 1 -16.8464,29.23075 26.835648,31.494003 0 0 1 -29.3881,-7.4691" id="path4274-7"/>
        <path inkscape:connector-curvature="0" style="color:#000000;font-style:normal;font-variant:normal;font-weight:normal;font-stretch:normal;font-size:medium;line-height:normal;font-family:sans-serif;text-indent:0;text-align:start;text-decoration:none;text-decoration-line:none;text-decoration-style:solid;text-decoration-color:#000000;letter-spacing:normal;word-spacing:normal;text-transform:none;direction:ltr;block-progression:tb;writing-mode:lr-tb;baseline-shift:baseline;text-anchor:start;white-space:normal;clip-rule:nonzero;display:inline;overflow:visible;visibility:visible;opacity:1;isolation:auto;mix-blend-mode:normal;color-interpolation:sRGB;color-interpolation-filters:linearRGB;solid-color:#000000;solid-opacity:1;fill:#c9d4d7;fill-opacity:1;fill-rule:nonzero;stroke:none;stroke-width:4.7836175;stroke-linecap:butt;stroke-linejoin:miter;stroke-miterlimit:4;stroke-dasharray:none;stroke-dashoffset:0;stroke-opacity:1;color-rendering:auto;image-rendering:auto;shape-rendering:auto;text-rendering:auto;enable-background:accumulate" d="m -1202.9004,813.35938 14.4199,23.72851 53.7032,-0.21875 10.8769,-23.50976 -3.7422,0 -75.2578,0 z" id="path5544"/>
        <path inkscape:connector-curvature="0" style="color:#000000;font-style:normal;font-variant:normal;font-weight:normal;font-stretch:normal;font-size:medium;line-height:normal;font-family:sans-serif;text-indent:0;text-align:start;text-decoration:none;text-decoration-line:none;text-decoration-style:solid;text-decoration-color:#000000;letter-spacing:normal;word-spacing:normal;text-transform:none;direction:ltr;block-progression:tb;writing-mode:lr-tb;baseline-shift:baseline;text-anchor:start;white-space:normal;clip-rule:nonzero;display:inline;overflow:visible;visibility:visible;opacity:1;isolation:auto;mix-blend-mode:normal;color-interpolation:sRGB;color-interpolation-filters:linearRGB;solid-color:#000000;solid-opacity:1;fill:#ffffff;fill-opacity:1;fill-rule:nonzero;stroke:none;stroke-width:4.7836175;stroke-linecap:butt;stroke-linejoin:miter;stroke-miterlimit:4;stroke-dasharray:none;stroke-dashoffset:0;stroke-opacity:1;color-rendering:auto;image-rendering:auto;shape-rendering:auto;text-rendering:auto;enable-background:accumulate" d="m -1173.6387,277.7832 -11.0625,14.14453 46.8594,-0.1914 6.4551,-13.95313 -42.252,0 z" transform="translate(0,540.36218)" id="path8585-0-2"/>
        <path inkscape:connector-curvature="0" style="fill:#002f51;fill-opacity:1;stroke:none" d="m -1190.221,820.42578 6.8168,0 c 0.6295,0 1.1362,0.33781 1.1362,0.75743 0,0.41961 -0.5067,0.75742 -1.1362,0.75742 l -6.8168,0 c -0.6295,0 -1.1362,-0.33781 -1.1362,-0.75742 0,-0.41962 0.5067,-0.75743 1.1362,-0.75743 z" id="rect7185"/>
        <path inkscape:connector-curvature="0" style="fill:#002f51;fill-opacity:1;stroke:none" d="m -1203.293,811.526 79.5428,0 c 0.7308,0 1.3192,0.50672 1.3192,1.13614 0,0.62942 -0.5884,1.13614 -1.3192,1.13614 l -79.5428,0 c -0.7308,0 -1.3192,-0.50672 -1.3192,-1.13614 0,-0.62942 0.5884,-1.13614 1.3192,-1.13614 z" id="rect7187"/>
        <path inkscape:connector-curvature="0" transform="matrix(0,1,-1,0,0,0)" style="fill:#002f51;fill-opacity:1;stroke:none" d="m 707.26249,1054.5502 4.54453,0 c 1.25887,0 2.27232,0.76 2.27232,1.7042 0,0.9441 -1.01345,1.7042 -2.27232,1.7042 l -4.54453,0 c -1.25887,0 -2.27232,-0.7601 -2.27232,-1.7042 0,-0.9442 1.01345,-1.7042 2.27232,-1.7042 z" id="rect7203"/>
        <path inkscape:connector-curvature="0" transform="matrix(0.43457963,0.90063341,0.86089399,-0.50878437,0,0)" style="fill:#e9e9e9;fill-opacity:1;stroke:none" d="m 130.37159,-1293.972 a 33.926468,39.815704 0 0 1 -21.29772,36.9544 33.926468,39.815704 0 0 1 -37.153388,-9.4427" id="path7205"/>
        <path inkscape:connector-curvature="0" transform="matrix(-0.48301431,0.87561246,-0.83188827,-0.55494316,0,0)" style="fill:#fed401;fill-opacity:1;stroke:none" d="m 1240.0585,550.00024 a 26.835648,31.494003 0 0 1 -16.8463,29.23075 26.835648,31.494003 0 0 1 -29.3882,-7.4691" id="path7207"/>
        <path inkscape:connector-curvature="0" style="color:#000000;font-style:normal;font-variant:normal;font-weight:normal;font-stretch:normal;font-size:medium;line-height:normal;font-family:sans-serif;text-indent:0;text-align:start;text-decoration:none;text-decoration-line:none;text-decoration-style:solid;text-decoration-color:#000000;letter-spacing:normal;word-spacing:normal;text-transform:none;direction:ltr;block-progression:tb;writing-mode:lr-tb;baseline-shift:baseline;text-anchor:start;white-space:normal;clip-rule:nonzero;display:inline;overflow:visible;visibility:visible;opacity:1;isolation:auto;mix-blend-mode:normal;color-interpolation:sRGB;color-interpolation-filters:linearRGB;solid-color:#000000;solid-opacity:1;fill:#c9d4d7;fill-opacity:1;fill-rule:nonzero;stroke:none;stroke-width:4.7836175;stroke-linecap:butt;stroke-linejoin:miter;stroke-miterlimit:4;stroke-dasharray:none;stroke-dashoffset:0;stroke-opacity:1;color-rendering:auto;image-rendering:auto;shape-rendering:auto;text-rendering:auto;enable-background:accumulate" d="m -1093.3613,771.58398 14.4199,23.72852 53.7031,-0.2207 10.877,-23.50782 -3.7422,0 -75.2578,0 z" id="path5538"/>
        <path inkscape:connector-curvature="0" style="color:#000000;font-style:normal;font-variant:normal;font-weight:normal;font-stretch:normal;font-size:medium;line-height:normal;font-family:sans-serif;text-indent:0;text-align:start;text-decoration:none;text-decoration-line:none;text-decoration-style:solid;text-decoration-color:#000000;letter-spacing:normal;word-spacing:normal;text-transform:none;direction:ltr;block-progression:tb;writing-mode:lr-tb;baseline-shift:baseline;text-anchor:start;white-space:normal;clip-rule:nonzero;display:inline;overflow:visible;visibility:visible;opacity:1;isolation:auto;mix-blend-mode:normal;color-interpolation:sRGB;color-interpolation-filters:linearRGB;solid-color:#000000;solid-opacity:1;fill:#ffffff;fill-opacity:1;fill-rule:nonzero;stroke:none;stroke-width:4.7836175;stroke-linecap:butt;stroke-linejoin:miter;stroke-miterlimit:4;stroke-dasharray:none;stroke-dashoffset:0;stroke-opacity:1;color-rendering:auto;image-rendering:auto;shape-rendering:auto;text-rendering:auto;enable-background:accumulate" d="m -1064.0996,236.00781 -11.0625,14.14453 46.8594,-0.1914 6.457,-13.95313 -42.2539,0 z" transform="translate(0,540.36218)" id="path7209"/>
        <path inkscape:connector-curvature="0" style="fill:#002f51;fill-opacity:1;stroke:none" d="m -1080.6815,778.65021 6.8169,0 c 0.6294,0 1.1361,0.33781 1.1361,0.75742 0,0.41962 -0.5067,0.75743 -1.1361,0.75743 l -6.8169,0 c -0.6294,0 -1.1361,-0.33781 -1.1361,-0.75743 0,-0.41961 0.5067,-0.75742 1.1361,-0.75742 z" id="rect7213"/>
        <path inkscape:connector-curvature="0" style="fill:#002f51;fill-opacity:1;stroke:none" d="m -1093.7535,769.75049 79.5429,0 c 0.7308,0 1.3191,0.50672 1.3191,1.13614 0,0.62942 -0.5883,1.13614 -1.3191,1.13614 l -79.5429,0 c -0.7308,0 -1.3191,-0.50672 -1.3191,-1.13614 0,-0.62942 0.5883,-1.13614 1.3191,-1.13614 z" id="rect7215"/>
        <path id="path5573" transform="translate(0,540.36218)" d="m -1432.0586,115.73633 c -13.0027,-0.0741 -26.2026,3.51749 -37.2695,10.14062 l 43.7402,20.27344 c -18.0617,5.84454 -32.4073,21.68629 -36.5742,40.38867 l 35.3809,-10.24218 c 0.1483,0.58455 0.3336,1.16017 0.5546,1.72265 2.2221,5.50887 7.5252,8.95711 12.877,8.37305 -12.3686,30.86235 -17.1164,71.34534 -11.9531,111.52539 5.2473,40.83462 19.7579,75.28313 39.0097,95.89844 26.5703,-4.28516 -11.4232,0.41334 66.6022,-7.26245 -11.1223,0.0328 -10.8012,0.10127 -21.7897,1.02807 -5.7879,-21.04725 -5.2633,-48.35403 2.0938,-76.63867 9.9784,-38.36256 30.6021,-72.1823 54.5508,-90.3418 1.3049,5.06113 5.4687,8.55012 10.207,8.55274 4.4273,-0.006 8.3871,-3.06219 9.9375,-7.66992 l 20.293,45.27929 c 11.329,-15.19864 14.5045,-35.26352 8.1113,-51.25195 l 37.5371,14.26172 c -2.8403,-19.45877 -15.5697,-36.34163 -32.1504,-42.64063 -9.9866,-3.77498 -20.4136,-3.32299 -29.2871,1.26953 2.4381,-10.88559 -0.5692,-22.12544 -8.3223,-31.10546 -9.5586,-11.05747 -25.1487,-17.35429 -41.4804,-16.75391 -3.2367,0.11867 -6.4512,0.50733 -9.5957,1.16015 l 26.2578,30.37891 c -17.1638,-0.52682 -34.8742,9.27666 -45.2832,25.05078 -0.8681,-12.78942 -5.9694,-24.82889 -14.5801,-33.13086 -1.0969,-1.05271 -2.2404,-2.03453 -3.4258,-2.9414 l 38.0977,-0.73047 c -9.8935,-16.99434 -28.0011,-27.91025 -45.7344,-27.57031 -8.4934,0.17371 -16.2983,2.93697 -22.4473,7.94726 -3.6867,-8.35453 -10.7897,-15.23477 -20.2968,-19.66015 -7.4118,-3.43529 -16.0179,-5.25899 -25.0606,-5.31055 z m 55.9434,65.67187 35.7187,34.44141 c 1.6292,-6.14505 2.1968,-12.44826 1.7949,-18.58203 l 28.6954,2.05859 c -0.01,0.1067 -0.01,0.21348 -0.014,0.32031 0.01,5.93948 3.6414,11.11603 8.8242,12.57032 -22.9888,24.02083 -42.4954,59.81116 -52.6934,99.01758 -6.8807,26.45353 -8.9141,51.81067 -6.5332,73.57226 -25.5811,-10.51067 -45.917,-47.3218 -51.7265,-92.53125 -5.0521,-39.3152 1.4666,-78.38763 16.9121,-104.16992 3.0991,4.20942 8.2647,5.89303 12.6621,4.12695 4.106,-1.65705 6.64,-5.97028 6.3594,-10.82422 z m 16.3437,207.78907 c 0.016,0.11186 0.033,0.22232 0.049,0.33398 l -0.078,0.01 z" style="fill:#3c517d;fill-opacity:1;stroke:none" inkscape:connector-curvature="0" sodipodi:nodetypes="sccccccscccscccccccccccccccccccsccccccscscccccccc"/>
        <path sodipodi:nodetypes="ccccsc" inkscape:connector-curvature="0" id="path5708" d="m -1252.0147,955.43288 -12.6841,0.13142 c 0,0 3.4048,25.21779 4.1754,35.99373 0.1004,1.49464 1.2622,2.71191 2.8178,2.71143 1.5549,-4.9e-4 2.7117,-1.21773 2.8159,-2.71143 0.8503,-12.19821 2.875,-36.12515 2.875,-36.12515 z" style="color:#000000;font-style:normal;font-variant:normal;font-weight:normal;font-stretch:normal;font-size:medium;line-height:normal;font-family:sans-serif;text-indent:0;text-align:start;text-decoration:none;text-decoration-line:none;text-decoration-style:solid;text-decoration-color:#000000;letter-spacing:normal;word-spacing:normal;text-transform:none;direction:ltr;block-progression:tb;writing-mode:lr-tb;baseline-shift:baseline;text-anchor:start;white-space:normal;clip-rule:nonzero;display:inline;overflow:visible;visibility:visible;opacity:1;isolation:auto;mix-blend-mode:normal;color-interpolation:sRGB;color-interpolation-filters:linearRGB;solid-color:#000000;solid-opacity:1;fill:#e74c3c;fill-opacity:1;fill-rule:nonzero;stroke:none;stroke-width:0.90535104px;stroke-linecap:butt;stroke-linejoin:miter;stroke-miterlimit:4;stroke-dasharray:none;stroke-dashoffset:0;stroke-opacity:1;color-rendering:auto;image-rendering:auto;shape-rendering:auto;text-rendering:auto;enable-background:accumulate"/>
      </g>
    </g>
    <path style="color:#000000;font-style:normal;font-variant:normal;font-weight:normal;font-stretch:normal;font-size:medium;line-height:normal;font-family:sans-serif;text-indent:0;text-align:start;text-decoration:none;text-decoration-line:none;text-decoration-style:solid;text-decoration-color:#000000;letter-spacing:normal;word-spacing:normal;text-transform:none;direction:ltr;block-progression:tb;writing-mode:lr-tb;baseline-shift:baseline;text-anchor:start;white-space:normal;clip-rule:nonzero;display:inline;overflow:visible;visibility:visible;opacity:1;isolation:auto;mix-blend-mode:normal;color-interpolation:sRGB;color-interpolation-filters:linearRGB;solid-color:#000000;solid-opacity:1;fill:#4bb7c0;fill-opacity:1;fill-rule:evenodd;stroke:none;stroke-width:1.25;stroke-linecap:round;stroke-linejoin:round;stroke-miterlimit:4;stroke-dasharray:none;stroke-dashoffset:0;stroke-opacity:1;color-rendering:auto;image-rendering:auto;shape-rendering:auto;text-rendering:auto;enable-background:accumulate" d="m 252.83554,790.5686 a 0.6250625,0.6250625 0 0 0 -0.3672,0.11328 l -3.375,2.36329 a 0.6250625,0.6250625 0 1 0 0.7168,1.02343 l 2.9317,-2.05273 9.3418,9.91406 a 0.6250625,0.6250625 0 1 0 0.9082,-0.85547 l -9.709,-10.31054 a 0.6250625,0.6250625 0 0 0 -0.4473,-0.19532 z" id="path5724" inkscape:connector-curvature="0"/>
  </g>

	<metadata>
		<rdf:RDF xmlns:rdf="http://www.w3.org/1999/02/22-rdf-syntax-ns#" xmlns:rdfs="http://www.w3.org/2000/01/rdf-schema#" xmlns:dc="http://purl.org/dc/elements/1.1/">
			<rdf:Description about="https://iconscout.com/legal#licenses" dc:title="beach_boat_coconut_tree_recreation_sea_vacation_tourism" dc:description="beach_boat_coconut_tree_recreation_sea_vacation_tourism" dc:publisher="Iconscout" dc:date="2017-04-20" dc:format="image/svg+xml" dc:language="en">
				<dc:creator>
					<rdf:Bag>
						<rdf:li>Vignesh Oviyan</rdf:li>
					</rdf:Bag>
				</dc:creator>
			</rdf:Description>
		</rdf:RDF>
    </metadata></svg>
