<?xml version="1.0" standalone="no"?>
<!DOCTYPE svg PUBLIC "-//W3C//DTD SVG 20010904//EN"
 "http://www.w3.org/TR/2001/REC-SVG-20010904/DTD/svg10.dtd">
<svg version="1.0" xmlns="http://www.w3.org/2000/svg"
 width="700.000000pt" height="700.000000pt" viewBox="0 0 700.000000 700.000000"
 preserveAspectRatio="xMidYMid meet">
<metadata>
Created by potrace 1.11, written by Peter Selinger 2001-2013
</metadata>
<g transform="translate(0.000000,700.000000) scale(0.100000,-0.100000)"
fill="#000000" stroke="none">
<path d="M763 5516 c-39 -8 -95 -21 -125 -31 -65 -21 -208 -86 -208 -95 0 -5
74 -41 475 -230 l130 -61 -50 -21 c-206 -88 -378 -278 -450 -496 -9 -29 -15
-55 -13 -57 2 -2 26 3 53 11 28 9 139 42 248 74 l198 58 19 -37 c27 -54 81
-98 129 -106 23 -4 41 -8 41 -9 0 -1 -16 -49 -35 -107 -75 -219 -124 -464
-148 -724 l-12 -140 -408 -3 -408 -2 5 -83 c3 -45 8 -127 11 -182 29 -506 214
-1075 494 -1515 84 -132 233 -333 261 -353 11 -8 18 -16 15 -18 -7 -8 166
-194 269 -289 186 -171 340 -287 545 -410 410 -246 844 -392 1346 -452 133
-16 533 -15 670 1 808 94 1486 431 2050 1020 449 469 753 1095 855 1758 21
136 40 357 40 461 l0 62 -869 0 -868 0 -38 -64 c-20 -35 -57 -87 -82 -115
l-45 -51 -328 0 c-300 0 -363 -5 -331 -25 6 -3 267 -5 581 -5 563 0 571 0 560
-19 -5 -11 -10 -22 -10 -25 0 -3 96 -6 213 -6 193 0 215 -2 244 -20 67 -40 85
-142 37 -200 -45 -53 -70 -60 -213 -60 -128 0 -131 0 -161 -27 -39 -35 -52
-87 -35 -137 33 -95 47 -98 404 -95 321 4 327 3 377 -53 87 -95 63 -243 -48
-296 -41 -20 -65 -22 -455 -28 l-412 -7 -31 -39 c-60 -74 -40 -71 -570 -79
-261 -4 -591 -10 -732 -13 l-258 -5 0 135 c0 133 0 135 -24 145 -29 14 -96 3
-96 -14 0 -7 0 -263 0 -569 l1 -558 -452 0 c-380 0 -450 2 -440 14 8 9 10 166
9 567 l-3 554 -27 9 c-18 6 -38 6 -55 0 l-28 -9 -3 -246 -2 -246 -181 -6
c-100 -4 -185 -4 -190 -1 -12 7 -11 237 2 370 32 330 121 642 272 957 l70 147
520 0 519 0 -52 59 -51 60 -426 1 c-235 0 -429 2 -431 5 -8 7 133 197 215 288
72 81 198 197 214 197 4 0 10 -11 13 -24 8 -34 69 -84 111 -92 49 -9 122 29
147 75 l17 35 15 -35 c8 -19 55 -126 105 -238 50 -112 91 -205 91 -207 0 -2
-12 -4 -27 -4 -27 0 -26 -1 24 -52 29 -29 58 -68 66 -87 l15 -34 17 26 17 27
438 0 438 0 -9 33 c-4 17 -11 44 -14 60 l-5 27 -391 0 c-368 0 -391 1 -386 18
48 146 50 159 51 287 0 98 -4 145 -17 189 -10 32 -16 60 -13 63 2 3 120 -39
261 -92 140 -54 258 -96 260 -93 10 10 -46 185 -81 253 -90 178 -253 316 -429
366 -77 22 -228 17 -295 -9 -30 -12 -56 -22 -57 -22 0 0 -1 42 -1 93 0 113
-24 196 -82 284 -83 126 -228 227 -396 275 -65 18 -104 23 -216 23 -81 0 -141
-4 -147 -10 -7 -7 46 -76 170 -220 l182 -210 -81 -11 c-199 -29 -381 -131
-506 -284 l-50 -60 -18 92 c-26 128 -90 258 -168 342 -47 50 -57 65 -44 70 8
3 126 6 260 6 199 0 244 3 244 14 0 7 -16 35 -36 62 -182 244 -472 368 -722
309 -63 -15 -175 -66 -187 -85 -10 -17 -21 -11 -34 18 -56 122 -216 241 -393
293 -94 27 -318 35 -425 15z m1497 -1395 c11 17 21 93 23 179 l2 64 55 -3 c30
-1 109 -6 175 -11 66 -5 132 -10 147 -10 23 0 27 -5 33 -40 8 -49 41 -99 82
-125 18 -11 32 -22 33 -25 0 -3 -27 -36 -61 -75 -102 -117 -214 -273 -295
-407 l-76 -128 -579 0 -579 0 0 44 c0 151 58 443 122 621 44 120 123 285 137
285 5 0 14 -7 22 -16 20 -24 65 -44 99 -44 72 0 132 53 146 128 l6 32 250
-242 c191 -185 252 -238 258 -227z m47 -713 c-3 -7 -30 -69 -60 -138 -134
-309 -223 -632 -272 -992 l-6 -48 -253 0 -254 0 -37 88 c-21 48 -53 131 -71
185 l-33 97 23 0 c112 0 263 137 306 277 70 226 -56 465 -280 534 -14 4 193 8
459 8 383 1 482 -2 478 -11z m-1201 -835 c14 -63 76 -276 90 -308 l14 -35
-165 0 c-147 0 -170 2 -205 20 -59 30 -94 89 -95 159 0 75 26 126 84 162 43
28 51 29 158 29 l113 0 6 -27z m3182 -1310 c35 -47 -7 -111 -65 -100 -21 4
-37 -4 -75 -36 l-48 -40 0 -93 c0 -88 1 -93 23 -96 43 -6 16 -23 -38 -23 -54
0 -81 17 -37 23 21 3 22 8 22 92 l0 88 -65 63 c-36 34 -65 66 -65 71 0 4 54 8
120 8 112 0 120 1 120 19 0 46 78 63 108 24z"/>
<path d="M6297 4824 c-10 -11 -9 -54 2 -54 5 0 17 -3 26 -6 14 -6 16 -1 13 27
-3 32 -24 49 -41 33z"/>
<path d="M4729 4213 c-11 -29 -6 -37 29 -48 19 -5 22 -3 22 22 0 28 -15 53
-32 53 -5 0 -13 -12 -19 -27z"/>
<path d="M5765 3900 c-3 -5 -3 -14 0 -20 7 -11 1121 -15 1149 -4 9 3 16 12 16
20 0 12 -91 14 -579 14 -376 0 -582 -4 -586 -10z"/>
<path d="M5950 3770 c0 -6 28 -10 65 -10 37 0 65 4 65 10 0 6 -28 10 -65 10
-37 0 -65 -4 -65 -10z"/>
<path d="M4390 3170 c0 -6 26 -10 59 -10 33 0 63 5 66 10 4 6 -18 10 -59 10
-37 0 -66 -4 -66 -10z"/>
</g>
</svg>
